<svg width="339" height="80" viewBox="0 0 339 80" fill="none" xmlns="http://www.w3.org/2000/svg">
<path d="M39.92 0C17.88 0 0 17.88 0 39.92C0 61.96 17.88 79.84 39.92 79.84C61.96 79.84 79.84 61.96 79.84 39.92C79.84 17.88 61.96 0 39.92 0ZM37.84 71.92V46.88H23.92L43.92 7.92V32.96H57.32L37.84 71.92Z" fill="url(#paint0_linear_21_13)"/>
<path d="M110.532 40.04C111.996 40.352 113.172 41.084 114.06 42.236C114.948 43.364 115.392 44.66 115.392 46.124C115.392 48.236 114.648 49.916 113.16 51.164C111.696 52.388 109.644 53 107.004 53H95.232V27.728H106.608C109.176 27.728 111.18 28.316 112.62 29.492C114.084 30.668 114.816 32.264 114.816 34.28C114.816 35.768 114.42 37.004 113.628 37.988C112.86 38.972 111.828 39.656 110.532 40.04ZM101.388 37.952H105.42C106.428 37.952 107.196 37.736 107.724 37.304C108.276 36.848 108.552 36.188 108.552 35.324C108.552 34.46 108.276 33.8 107.724 33.344C107.196 32.888 106.428 32.66 105.42 32.66H101.388V37.952ZM105.924 48.032C106.956 48.032 107.748 47.804 108.3 47.348C108.876 46.868 109.164 46.184 109.164 45.296C109.164 44.408 108.864 43.712 108.264 43.208C107.688 42.704 106.884 42.452 105.852 42.452H101.388V48.032H105.924ZM134.694 48.536H125.262L123.75 53H117.306L126.45 27.728H133.578L142.722 53H136.206L134.694 48.536ZM133.11 43.784L129.978 34.532L126.882 43.784H133.11ZM154.649 53.252C152.801 53.252 151.145 52.952 149.681 52.352C148.217 51.752 147.041 50.864 146.153 49.688C145.289 48.512 144.833 47.096 144.785 45.44H151.337C151.433 46.376 151.757 47.096 152.309 47.6C152.861 48.08 153.581 48.32 154.469 48.32C155.381 48.32 156.101 48.116 156.629 47.708C157.157 47.276 157.421 46.688 157.421 45.944C157.421 45.32 157.205 44.804 156.773 44.396C156.365 43.988 155.849 43.652 155.225 43.388C154.625 43.124 153.761 42.824 152.633 42.488C151.001 41.984 149.669 41.48 148.637 40.976C147.605 40.472 146.717 39.728 145.973 38.744C145.229 37.76 144.857 36.476 144.857 34.892C144.857 32.54 145.709 30.704 147.413 29.384C149.117 28.04 151.337 27.368 154.073 27.368C156.857 27.368 159.101 28.04 160.805 29.384C162.509 30.704 163.421 32.552 163.541 34.928H156.881C156.833 34.112 156.533 33.476 155.981 33.02C155.429 32.54 154.721 32.3 153.857 32.3C153.113 32.3 152.513 32.504 152.057 32.912C151.601 33.296 151.373 33.86 151.373 34.604C151.373 35.42 151.757 36.056 152.525 36.512C153.293 36.968 154.493 37.46 156.125 37.988C157.757 38.54 159.077 39.068 160.085 39.572C161.117 40.076 162.005 40.808 162.749 41.768C163.493 42.728 163.865 43.964 163.865 45.476C163.865 46.916 163.493 48.224 162.749 49.4C162.029 50.576 160.973 51.512 159.581 52.208C158.189 52.904 156.545 53.252 154.649 53.252ZM190.262 53H184.106L173.81 37.412V53H167.654V27.728H173.81L184.106 43.388V27.728H190.262V53ZM200.88 27.728V53H194.724V27.728H200.88ZM214.485 53.252C212.637 53.252 210.981 52.952 209.517 52.352C208.053 51.752 206.877 50.864 205.989 49.688C205.125 48.512 204.669 47.096 204.621 45.44H211.173C211.269 46.376 211.593 47.096 212.145 47.6C212.697 48.08 213.417 48.32 214.305 48.32C215.217 48.32 215.937 48.116 216.465 47.708C216.993 47.276 217.257 46.688 217.257 45.944C217.257 45.32 217.041 44.804 216.609 44.396C216.201 43.988 215.685 43.652 215.061 43.388C214.461 43.124 213.597 42.824 212.469 42.488C210.837 41.984 209.505 41.48 208.473 40.976C207.441 40.472 206.553 39.728 205.809 38.744C205.065 37.76 204.693 36.476 204.693 34.892C204.693 32.54 205.545 30.704 207.249 29.384C208.953 28.04 211.173 27.368 213.909 27.368C216.693 27.368 218.937 28.04 220.641 29.384C222.345 30.704 223.257 32.552 223.377 34.928H216.717C216.669 34.112 216.369 33.476 215.817 33.02C215.265 32.54 214.557 32.3 213.693 32.3C212.949 32.3 212.349 32.504 211.893 32.912C211.437 33.296 211.209 33.86 211.209 34.604C211.209 35.42 211.593 36.056 212.361 36.512C213.129 36.968 214.329 37.46 215.961 37.988C217.593 38.54 218.913 39.068 219.921 39.572C220.953 40.076 221.841 40.808 222.585 41.768C223.329 42.728 223.701 43.964 223.701 45.476C223.701 46.916 223.329 48.224 222.585 49.4C221.865 50.576 220.809 51.512 219.417 52.208C218.025 52.904 216.381 53.252 214.485 53.252ZM239.442 53.252C237.066 53.252 234.882 52.7 232.89 51.596C230.922 50.492 229.35 48.956 228.174 46.988C227.022 44.996 226.446 42.764 226.446 40.292C226.446 37.82 227.022 35.6 228.174 33.632C229.35 31.664 230.922 30.128 232.89 29.024C234.882 27.92 237.066 27.368 239.442 27.368C241.818 27.368 243.99 27.92 245.958 29.024C247.95 30.128 249.51 31.664 250.638 33.632C251.79 35.6 252.366 37.82 252.366 40.292C252.366 42.764 251.79 44.996 250.638 46.988C249.486 48.956 247.926 50.492 245.958 51.596C243.99 52.7 241.818 53.252 239.442 53.252ZM239.442 47.636C241.458 47.636 243.066 46.964 244.266 45.62C245.49 44.276 246.102 42.5 246.102 40.292C246.102 38.06 245.49 36.284 244.266 34.964C243.066 33.62 241.458 32.948 239.442 32.948C237.402 32.948 235.77 33.608 234.546 34.928C233.346 36.248 232.746 38.036 232.746 40.292C232.746 42.524 233.346 44.312 234.546 45.656C235.77 46.976 237.402 47.636 239.442 47.636ZM261.947 48.248H270.011V53H255.791V27.728H261.947V48.248ZM288.679 48.536H279.247L277.735 53H271.291L280.435 27.728H287.563L296.707 53H290.191L288.679 48.536ZM287.095 43.784L283.963 34.532L280.867 43.784H287.095ZM312.378 53L307.122 43.46H305.646V53H299.49V27.728H309.822C311.814 27.728 313.506 28.076 314.898 28.772C316.314 29.468 317.37 30.428 318.066 31.652C318.762 32.852 319.11 34.196 319.11 35.684C319.11 37.364 318.63 38.864 317.67 40.184C316.734 41.504 315.342 42.44 313.494 42.992L319.326 53H312.378ZM305.646 39.104H309.462C310.59 39.104 311.43 38.828 311.982 38.276C312.558 37.724 312.846 36.944 312.846 35.936C312.846 34.976 312.558 34.22 311.982 33.668C311.43 33.116 310.59 32.84 309.462 32.84H305.646V39.104Z" fill="url(#paint1_linear_21_13)"/>
<defs>
<linearGradient id="paint0_linear_21_13" x1="21" y1="5.5" x2="66.5" y2="68.5" gradientUnits="userSpaceOnUse">
<stop offset="0.0629441" stop-color="#FDB400"/>
<stop offset="1" stop-color="#E3A409"/>
</linearGradient>
<linearGradient id="paint1_linear_21_13" x1="105.5" y1="22.0001" x2="339" y2="53" gradientUnits="userSpaceOnUse">
<stop stop-color="#627193"/>
<stop offset="1" stop-color="#708DCF"/>
</linearGradient>
</defs>
</svg>
